# xmcd CD database file
#
# Track frame offsets:
#	182
#	19077
#	31510
#	40212
#	56197
#	67775
#	85295
#	105897
#	115787
#	131207
#	145635
#	160350
#	181120
#	197590
#	211250
#	225937
#	237492
#	255655
#	269782
#	282040
#	302642
#
# Disc length: 4209 seconds
#
# Revision: 0
# Processed by: cddbd v1.4PL0 Copyright (c) Steve Scherf et al.
# Submitted via: Feurio! 1.65 - http://www.feurio.com
#
DISCID=18106f15
DTITLE=The John Dummer Blues Band - Nine By Nine
DYEAR=1995
DGENRE=Blues
TTITLE0=The World's In A Tangle
TTITLE1=Soulful Dress
TTITLE2=Let Me Love You Baby
TTITLE3=Screaming And Crying
TTITLE4=Big Feeling Blues
TTITLE5=New Skin Game
TTITLE6=No Chance Now
TTITLE7=Reconsider Baby
TTITLE8=Down Home Girl
TTITLE9=I Can't Be Satisfied
TTITLE10=Nine By Nine
TTITLE11=I Love You Honey
TTITLE12=Riding In The Moonlight
TTITLE13=Walkin' Blues
TTITLE14=Lovin' Man
TTITLE15=Statesboro'  Blues
TTITLE16=Monkey Speaks His Mind
TTITLE17=Young Blood
TTITLE18=Be Careful What You Do
TTITLE19=Shame Shame Shame
TTITLE20=Walking The Dog
EXTD=ARD Indigo Records
EXTT0=
EXTT1=
EXTT2=
EXTT3=
EXTT4=
EXTT5=
EXTT6=
EXTT7=
EXTT8=
EXTT9=
EXTT10=
EXTT11=
EXTT12=
EXTT13=
EXTT14=
EXTT15=
EXTT16=
EXTT17=
EXTT18=
EXTT19=
EXTT20=
PLAYORDER=
